/* XPM */
static char * bush_xpm[] = {
"64 64 8 1",
" 	c #000000",
".	c #839E10",
"+	c #ABCE15",
"@	c #BFEB08",
"#	c #667910",
"$	c #227522",
"%	c #1B651B",
"&	c #103910",
"                                                                ",
"                                                                ",
"                                                                ",
"                                                                ",
"                                                                ",
"                                                                ",
"                                                                ",
"                                                                ",
"                                                                ",
"                                                                ",
"                                                                ",
"                .   .....  .      .  ..  .     .  .             ",
"         ... ............ ... ..... ..................          ",
"        ..........+++...................................        ",
"      ......+.+..+.++++....++++.++++++...................       ",
"    ........+++++++++++++++++++++++++++++++++++...........      ",
"   ....++++++@+@@@+++@@@@+@@@@@+@@@@@@@@+++++++++++++.......    ",
"  ....+++++@@@@+@@@@+@@@@+@@@@@+@@@@@+@@+++++++++@++++++.....   ",
" ...++..++@@@@@@+@@@+@@@@+@@@@+@@@@@+@@@++@@+@@@@+@@++++......  ",
" ..++++++@++@@@@+@@@++@@+@@@@+@@@@++@@@@+@@@+@@@@+++@++++.....  ",
"....++++@@@@+@@@+@@@+@@++@@+++@@@@@@@@@@++@@+@+@@@@@@+@@@.......",
".+++++@@++@@@@@@+@@@@@@@@@@@@@@@@@@@@@@@@@@@++@@@@+@+@@@@@......",
"..+++@@@@@+@@@@@@@@@@@@@@@@@@@@@@@@@@@@@@@@@@@@@@++++@@@++++....",
"++..+++@@@++@@@@@@@@@@@@@@@@@@@@@@@@@@@@@@@@@@@@@+@@@@+@@+++....",
"+++@@@@+@@@@@@@@@@@@@@@@@@@@@@@@@@@@@@@@@@@@@@@@@@@@+@++@@@++++.",
"++@@@+@+++@@@@@@@@@@@@@@@@@@@@@@@@@@@@@@@@@@@@@@@@@+@@@+@+@++.+.",
"++@@+@@@@@@@@@@@@@@@@@@@@@@@@@@@@@@@@@@@@@@@@@@@@@@@@@@+@+@+++++",
"..@+@@@@@@@@@@@@@@@@@@@@@@@@@@@@@@@@@@@@@@@@@@@@@@@@@@@+@+@+++++",
"+++@@@+++@@@@@@@@@@@@@@@@@@@@@@@@@@@@@@@@@@@@@@@@@@@@@@@++@+@+++",
"+++@@+@@@@@@@@@@@@@@@@@@@@@@@@@@@@@@@@@@@@@@@@@@@@@@@@@@+@+@@+.+",
"++@@+@@+@@@@@@@@@@@@@@@@@@@@@@@@@@@@@@@@@@@@@@@@@@@@@@@++@+@@@+.",
".+++@+@+@@@@@@@@@@@@@@@@@@@@@@@@@@@@@@@@@@@@@@@@@@@@@@@@@+@@@@+.",
".++@@+@@@@@@@@@@@@@@@@@@@@@@@@@@@@@@@@@@@@@@@@@@@@@@+@@@@@+@@++.",
"+++@+@@@@@@@@@@@@@@@@@@@@@@@@@@@@+@@@@@@@@@@@@@+@@@@@@@@@@+@@++.",
"+++@+@@@+@@@@@@@@@@@@@@@@@+@@@@@@+@@@@@@@@@@@@@@++@+++@@+@@@@.+.",
".+++@+@+@@@+@@+@@@@@++@@@@+@@@+@@@@@@@@@@@@+@@@@++@@+++@+@@@@...",
".++++@@+@@@+@@+@@@@@@@++++@@@@+@@@@++++@@+++@+@++@+@@+@@@++@@+.+",
"...+++@+@@+@@@+@@@@@@@@@@+@@@@++@@+++++++++@++@++@+++@@@+@+++++.",
"..++++++@@+@@@@@+@@@+@@@@+@@@++++++++++++++@+++@@+++++++++++...+",
"..++.++++@@+@@@@+@@@+@@@@++++++++.+....+++.@.+....+++++++++.....",
"....++++++++@@@@+@@@+@@@++++++.+.++++.++....++......+.+......+..",
"....++..++++@@@@@+++++++...+.++..................#....++++......",
"......+++...++++.+++++................#.........#...............",
".......+.+++.+++.+................##.....#.....###..............",
"...........++.+++.+............##.##.....#....#.##.##...........",
"#..##......................#..##..##.#...#....#.##..##..##.#..#.",
"##.#.#.#...#.....##...##..##..##..###################.###..#.###",
"#######.#..#..#...#.##.#....############################.###..##",
"################...#.##.#...####################################",
"############################################$$########$#########",
"##$#################################$###$###$#$$$####$#$########",
"##$##$#$############$#####$##$###$##$#$$#$$$$##$$$##$$#$$###$###",
"##$##$#$##$#$##$#$$#$##$#$##$$###$$##$#$$##$$$$$$$$#$#$$$$$$$$##",
"$$$$$$$#$#$$###$###$#$##$$#$$$$$#$$$$$$$$$$$$$$$$$$$$$$#$$$$$$$$",
"$$$$$$$$$$$$$$$$$#$$$$$$$$$$$$$$$$$$$$$$$$$$$$$$$$$$$$$$$$$$$$$$",
"$$$$$$$$$$$$$$$$$$$$$$$$$$$$$$$$$$$$$$$$$%$$$$$$$$$$$$$$$$$$$$$$",
"$$$$%%$$%$%$$%$$%%$$%$$$%$$$$$%$$$$$$%$$%$%$%%%%%$$$$%$$%$$%$$$$",
"$$$$$%%$$%$%$$%%$$%%$%%$$%%%$$%$$$%$%$$%$$$%$$$$%$$$%$%$$%%%$$$$",
" %%%%%%%%%%&%%&%%%%%%%%%&%%%%%%%%%%%&&&%%%%&&%%%%%%$%$$%%$%%$%% ",
" %%%&%&%%&%&%%%&%%&%%%&&%&%%&&&%&%%&%%%%%&&%%%%&%%%%%%%%%%%%%%  ",
"  &&&&&&&&&&&&%%&%&%%&%%%%%&%%%&&&&&&&&&&&&&&&&&&&%%%&&%&&%&&%  ",
"   &&&&&&&&&&&&&&&&&&&&&&&&&&&&&&&&&&&&&&&&&&&&&&&&&&&&&&&&&&&  ",
"    &&&&&&&&&&&&&&&&&&&&&&&&&&&&&&&&&&&&&&&&&&&&&&&&&&&&&&&&&   ",
"      &&&&&&&&&&&&&&&&&&&&&&&&&&&&&&&&&&&&&&&&&&&&&&&&&&&&&&    "};
