/* XPM */
static char * wall_texture_xpm[] = {
"64 64 4 1",
" 	c #000000",
".	c #ABABAB",
"+	c #565656",
"@	c #333333",
"+++++++++@@@@@@@+++++++++@@@@@@@++++++++@@@@@@@+++++++++@@@@@@@@",
"+..++++++++++++++..++++++++++++@..+++++++++++++...+++++++++++++@",
"+.+++++++++++++++.+++++++++++++@.++++++++++++++.+++++++++++++++@",
"+++++++++++++++++++++++++++++++@.++++++++++++++.+++++++++++++++@",
"+++++++++++++++@+++++++++++++++@.+++++++++++++@.+++++++++++++++@",
"+++++++++++++++@+++++++++++++++@++++++++++++++@++++++++++++++++@",
"@++++++++++++++@@+++++++++++++@@++++++++++++++@@++++++++++++++@@",
"@+++++++++++++@@@++++++++++++@@@+++++++++++++@@@+++++++++++++@@@",
"@@@@@@@@@@@@@@@@@@@@@@@@@@@@@@@ @@@@@@@@@@@@@@ @@@@@@@@@@@@@@@@ ",
"++++++++@.......++++++++........++++++++.......+++++++++........",
"++++++++@.++++++++++++++..++++++++++++++..++++++++++++++.+++++++",
"++++++++@.++++++++++++++.+++++++++++++++.+++++++++++++++++++++++",
"++++++++@.+++++++++++++@.++++++++++++++@.+++++++++++++++++++++++",
"++++++++@.+++++++++++++@.++++++++++++++@.+++++++++++++@+++++++++",
"++++++++@++++++++++++++@+++++++++++++++@++++++++++++++@@++++++++",
"+++++++@@+++++++++++++@@++++++++++++++@@+++++++++++++@@@++++++++",
"@@@@@@@@ @@@@@@@@@@@@@@@@@@@@@@@@@@@@@@@@@@@@@@@@@@@@@@@@@@@@@@@",
"+........++++++++.......+++++++@........++++++@+.......++++++++@",
"+.+++++++++++++++.+++++++++++++@..+++++++++++++..++++++++++++++@",
"+++++++++++++++++++++++++++++++@.++++++++++++++.+++++++++++++++@",
"+++++++++++++++++++++++++++++++@.+++++++++++++@.+++++++++++++++@",
"+++++++++++++++@+++++++++++++++@.+++++++++++++@.+++++++++++++++@",
"+++++++++++++++@+++++++++++++++@++++++++++++++@++++++++++++++++@",
"@++++++++++++++@@+++++++++++++@@+++++++++++++@@@++++++++++++++@@",
"@++++++++@@@@@@@@++++++++@@@@@@@++++++++@@@@@@@@+++++++@@@@@@@@@",
"+@@@@@@@@+++++++++@@@@@@@++++++++@@@@@@@++++++++@@@@@@@+++++++++",
"++++++++@..+++++++++++++@..+++++++++++++..++++++++++++++..++++++",
"++++++++@.++++++++++++++@.++++++++++++++.+++++++++++++++.+++++++",
"++++++++@.++++++++++++++@.+++++++++++++@.+++++++++++++++++++++++",
"++++++++@.++++++++++++++@.+++++++++++++@.+++++++++++++@+++++++++",
"++++++++@.++++++++++++++@.+++++++++++++@++++++++++++++@+++++++++",
"+++++++@@++++++++++++++@@++++++++++++++@++++++++++++++@@++++++++",
"++++++@@@+++++++++++++@@@+++++++++++++@@+++++++++++++@@@++++++++",
"@@@@@@@@@@@@@@@@@@@@@@@@ @@@@@@@@@@@@@@@@@@@@@@@@@@@@@@@@@@@@@@@",
"+........++++++++.......+++++++@.......++++++++@.......++++++++@",
"+.+++++++++++++++.+++++++++++++@.++++++++++++++@.++++++++++++++@",
"+++++++++++++++++++++++++++++++@.++++++++++++++@.++++++++++++++@",
"+++++++++++++++++++++++++++++++@.++++++++++++++@.++++++++++++++@",
"+++++++++++++++@+++++++++++++++@.++++++++++++++@.++++++++++++++@",
"@++++++++++++++@@++++++++++++++@+++++++++++++++@+++++++++++++++@",
"@+++++++++++++@@@+++++++++++++@@++++++++++++++@@++++++++++++++@@",
"@@@@@@@@@@@@@@@@@@@@@@@@@@@@@@@ @@@@@@@@@@@@@@@ @@@@@@@@@@@@@@@ ",
"++++++++@........+++++++@.......+++++++@+.......++++++++........",
"++++++++@..+++++++++++++@..+++++++++++++..++++++++++++++.+++++++",
"++++++++@.++++++++++++++@.++++++++++++++.+++++++++++++++.+++++++",
"++++++++@.++++++++++++++@.+++++++++++++@.+++++++++++++++++++++++",
"++++++++@.++++++++++++++@.+++++++++++++@.+++++++++++++@+++++++++",
"++++++++@.++++++++++++++@.+++++++++++++@.+++++++++++++@+++++++++",
"+++++++@@++++++++++++++@@+++++++++++++@@++++++++++++++@@++++++++",
"@@@@@@@@@+++++++@@@@@@@@@+++++++@@@@@@@@@+++++++@@@@@@@@++++++++",
"+++++++++@@@@@@@+++++++++@@@@@@@+++++++++@@@@@@@++++++++@@@@@@@@",
"+..++++++++++++++..++++++++++++++..++++++++++++++..++++++++++++@",
"+.+++++++++++++++.+++++++++++++++.+++++++++++++++.+++++++++++++@",
"+++++++++++++++++++++++++++++++++++++++++++++++++++++++++++++++@",
"+++++++++++++++@+++++++++++++++@+++++++++++++++@+++++++++++++++@",
"+++++++++++++++@+++++++++++++++@+++++++++++++++@+++++++++++++++@",
"@+++++++++++++@@@+++++++++++++@@@+++++++++++++@@@+++++++++++++@@",
"@@@@@@@@@@@@@@@@@@@@@@@@@@@@@@@@@@@@@@@@@@@@@@@@@@@@@@@@@@@@@@@ ",
"++++++++@.......++++++++@.......+++++++@+.......++++++++........",
"++++++++@..+++++++++++++@..+++++++++++++..++++++++++++++.+++++++",
"++++++++@.++++++++++++++@.+++++++++++++@.+++++++++++++++.+++++++",
"++++++++@.++++++++++++++@.+++++++++++++@.+++++++++++++@+++++++++",
"+++++++@@.+++++++++++++@@.++++++++++++@@++++++++++++++@+++++++++",
"@@@@@@@@@+++++++@@@@@@@@@++++++++@@@@@@@++++++++@@@@@@@@++++++++"};
