/* XPM */
static char * wall_texture_64_torch_1_xpm[] = {
"64 64 76 1",
" 	c #565656",
".	c #333333",
"+	c #ABABAB",
"@	c #130215",
"#	c #FF8000",
"$	c #FD5F0C",
"%	c #CC342E",
"&	c #000000",
"*	c #FF8801",
"=	c #ED4C11",
"-	c #FF8601",
";	c #FD7B02",
">	c #FFCE38",
",	c #FE8D00",
"'	c #FEF9ED",
")	c #FF8300",
"!	c #190018",
"~	c #EF4A17",
"{	c #130217",
"]	c #C1987A",
"^	c #F4E3A2",
"/	c #F8F8DA",
"(	c #4D4358",
"_	c #5B1932",
":	c #1E0417",
"<	c #C05539",
"[	c #6A2533",
"}	c #66142F",
"|	c #7B2C37",
"1	c #CD5827",
"2	c #F9A93A",
"3	c #B85733",
"4	c #170416",
"5	c #F2B85D",
"6	c #DF9834",
"7	c #ECE3AD",
"8	c #D09E6F",
"9	c #5A4F5A",
"0	c #574B64",
"a	c #544F61",
"b	c #D39D78",
"c	c #584F62",
"d	c #433950",
"e	c #632034",
"f	c #3E081F",
"g	c #FAB831",
"h	c #B6552C",
"i	c #892E31",
"j	c #B1542B",
"k	c #621D33",
"l	c #3F0B20",
"m	c #D17724",
"n	c #B8542B",
"o	c #140115",
"p	c #F6B448",
"q	c #B34F2C",
"r	c #5F1A2D",
"s	c #6D2538",
"t	c #340922",
"u	c #5A172C",
"v	c #631D2A",
"w	c #C05C2D",
"x	c #3C061A",
"y	c #52192F",
"z	c #E4EBE9",
"A	c #FBFADD",
"B	c #EFD095",
"C	c #555168",
"D	c #4C475B",
"E	c #5A5765",
"F	c #F0D49D",
"G	c #CB9D78",
"H	c #C69475",
"I	c #4B4152",
"J	c #5F1F34",
"K	c #4F1932",
"         .......         .......        .......         ........",
" ++              ++            .++             +++             .",
" +               +             .+              +               .",
"                               .+              +               .",
"               .               .+             .+               .",
"               .               .     @        .                .",
".              ..             ..     @        ..              ..",
".             ...            ... #$  %@      ...             ...",
"...............................&.@@.@%@.......&................&",
"        .+++++++        ++++++++    @%@ +++++++         ++++++++",
"        .+              ++     *@  @=%@ ++              +       ",
"        .+              +      @@ @%-%@ ;                       ",
"        .+             .+    @@@@@%-=%@.@                       ",
"        .+             .+  @@%%%%=%-=@@.+             .         ",
"        .              .  @@%%->->--%@ ,@             ..        ",
"       ..             ..  @%%->>>>-%@@.@@            ...        ",
"........&.................@%->>'>>=@@...........................",
" ++++++++        +++++++ @@-->>''-%-%@++      . +++++++        .",
" +               +      @%-->>''----%@ )       ++              .",
"                        @%->>''>->-%@          +               .",
"                        @=>>''''>>>%@ !       .+               .",
"               .        @=>'''''''>%@         .+               .",
"               .        @=>'->''''-~%@        .                .",
".              ..        @=>->>'>%=%@        ...              ..",
".        ........        .@-->>>%%@@    ........       .........",
" ........         ....... @@@@@@@@@.....        .......         ",
"        .++             {]^/////^^]{    ++              ++      ",
"        .+              {((]^/]]^(({    +               +       ",
"        .+              .{{{{{{{{{{{   .+                       ",
"        .+              .{_:<[[<}:_{   .+             .         ",
"        .+              .{|12:3:2|_{   .              .         ",
"       ..              ..{{{32:31{{{   .              ..        ",
"      ...             ... {_4_564_{   ..             ...        ",
"........................&..{{{{{{{..............................",
" ++++++++        +++++++   {78980{+++++        .+++++++        .",
" +               +         {a8bcd{             .+              .",
"                            {{{{{              .+              .",
"                            {eef{              .+              .",
"               .            {ghi{              .+              .",
".              ..           {jkl{              .               .",
".             ...           {mno{             ..              ..",
"............................{pqr{..............&...............&",
"        .++++++++       .+++{stu{      . +++++++        ++++++++",
"        .++             .++ {vwx{       ++              +       ",
"        .+              .+  {vwy{       +               +       ",
"        .+              .+ {zABCD{     .+                       ",
"        .+              .+ {EFGHI{     .+             .         ",
"        .+              .+ {{JJK{{     .+             .         ",
"       ..              ..   {{J{{     ..              ..        ",
".........       .........    {{{.........       ........        ",
"         .......         .......         .......        ........",
" ++              ++              ++              ++            .",
" +               +               +               +             .",
"                                                               .",
"               .               .               .               .",
"               .               .               .               .",
".             ...             ...             ...             ..",
"...............................................................&",
"        .+++++++        .+++++++       . +++++++        ++++++++",
"        .++             .++             ++              +       ",
"        .+              .+             .+               +       ",
"        .+              .+             .+             .         ",
"       ..+             ..+            ..              .         ",
".........       .........        .......        ........        "};
