/* XPM */
static char * wall_texture_brown_torch_1_64_bis_xpm[] = {
"64 64 124 2",
"  	c #27150A",
". 	c #533F32",
"+ 	c #594539",
"@ 	c #584437",
"# 	c #523E31",
"$ 	c #5A473B",
"% 	c #584438",
"& 	c #4E3A2E",
"* 	c #554235",
"= 	c #554135",
"- 	c #544034",
"; 	c #5D4A3D",
"> 	c #5D493D",
", 	c #564336",
"' 	c #5C483C",
") 	c #544033",
"! 	c #574336",
"~ 	c #554134",
"{ 	c #523E32",
"] 	c #5E4A3E",
"^ 	c #3F2D21",
"/ 	c #5A463A",
"( 	c #5F4C3F",
"_ 	c #564235",
": 	c #5B483C",
"< 	c #4A362A",
"[ 	c #130215",
"} 	c #5B483B",
"| 	c #5B473B",
"1 	c #453226",
"2 	c #4F3B2E",
"3 	c #594639",
"4 	c #FF8000",
"5 	c #FD5F0C",
"6 	c #CC342E",
"7 	c #523D31",
"8 	c #544134",
"9 	c #4F3A2E",
"0 	c #FF8801",
"a 	c #ED4C11",
"b 	c #FF8601",
"c 	c #FD7B02",
"d 	c #4A372A",
"e 	c #453126",
"f 	c #564236",
"g 	c #FFCE38",
"h 	c #FE8D00",
"i 	c #574337",
"j 	c #FEF9ED",
"k 	c #322015",
"l 	c #5B473A",
"m 	c #5A4639",
"n 	c #FF8300",
"o 	c #5C493C",
"p 	c #5A473A",
"q 	c #584538",
"r 	c #190018",
"s 	c #574437",
"t 	c #EF4A17",
"u 	c #3F2C21",
"v 	c #130217",
"w 	c #C1987A",
"x 	c #F4E3A2",
"y 	c #F8F8DA",
"z 	c #513D31",
"A 	c #4D4358",
"B 	c #5B1932",
"C 	c #1E0417",
"D 	c #C05539",
"E 	c #6A2533",
"F 	c #66142F",
"G 	c #7B2C37",
"H 	c #CD5827",
"I 	c #F9A93A",
"J 	c #B85733",
"K 	c #170416",
"L 	c #F2B85D",
"M 	c #DF9834",
"N 	c #533F33",
"O 	c #ECE3AD",
"P 	c #D09E6F",
"Q 	c #5A4F5A",
"R 	c #574B64",
"S 	c #544F61",
"T 	c #D39D78",
"U 	c #584F62",
"V 	c #433950",
"W 	c #632034",
"X 	c #3E081F",
"Y 	c #FAB831",
"Z 	c #B6552C",
"` 	c #892E31",
" .	c #B1542B",
"..	c #621D33",
"+.	c #3F0B20",
"@.	c #5F4B3F",
"#.	c #614E41",
"$.	c #D17724",
"%.	c #B8542B",
"&.	c #140115",
"*.	c #533E32",
"=.	c #604D40",
"-.	c #F6B448",
";.	c #B34F2C",
">.	c #5F1A2D",
",.	c #6D2538",
"'.	c #340922",
").	c #5A172C",
"!.	c #631D2A",
"~.	c #C05C2D",
"{.	c #3C061A",
"].	c #52192F",
"^.	c #E4EBE9",
"/.	c #FBFADD",
"(.	c #EFD095",
"_.	c #555168",
":.	c #4C475B",
"<.	c #5A5765",
"[.	c #F0D49D",
"}.	c #CB9D78",
"|.	c #C69475",
"1.	c #4B4152",
"2.	c #5F1F34",
"3.	c #4F1932",
"                          .                 +                   @                     .                     # +                 ",
"                        $                   .                   @                                           . .                 ",
"                      $                     .                   @                                             .                 ",
"                    $                                           %                                             &                 ",
".                   $                       . @ * * = - = ; > , '                     $                       ) ! ~ ) { . * ] . ",
"$                   .                                           @                     $                                         ",
".                   .                                           @                     .                                         ",
".                   $                                           @                     $                                         ",
".                   $                       ^                   /                     .                                         ",
"$                   .                       $                   (                     .                                         ",
"> ; _ . . . . ) $ ; :                       .                 ] - . < . . [ . . } | ; ;                                         ",
"                                            <                 1           [           .                       2                 ",
"                      3 # . _ + @ # . . .   #                 .   4 5     6 [         . @ ) & . 7 7 ) . . 8 - 9 . . .           ",
"                      .                     .                 2   [ [   [ 6 [         .                                         ",
"                      .                     .                 .         [ 6 [         .                                         ",
"                    $                       #                 0 [     [ a 6 [         .                                         ",
"                    9                                         [ [   [ 6 b 6 [   c     .                                         ",
"                    % d                     )             [ [ [ [ [ 6 b a 6 [   [     + e                                       ",
"                                            !         [ [ 6 6 6 6 a 6 b a [ [                                                   ",
"                                            f       [ [ 6 6 b g b g b b 6 [   h [                                               ",
"                                            f       [ 6 6 b g g g g b 6 [ [   [ [       <                                       ",
"+ = - - _ 2 . . . i f % e . d               -       [ 6 b g g j g g a [ [ , . . . . 3 3 ; ! ! &               k                 ",
"$                             i k k k       l     [ [ b b g g j j b 6 b 6 [                     f             i                 ",
"                              % # . . ~ _ ( m f [ 6 b b g g j j b b b b 6 [   n                 o d     2 . ] p , . . 8 . . . $ ",
"                              k                 [ 6 b g g j j g b g b 6 [                       .         .                     ",
"                              q                 [ a g g j j j j g g g 6 [   r                   ~     . ^                       ",
"                              .                 [ a g j j j j j j j g 6 [                       s   .                           ",
"                              .                 [ a g j b g j j j j b t 6 [                     2 .                             ",
"                              .                   [ a g b g g j g 6 a 6 [                       q                               ",
"                              .                     [ b b g g g 6 6 [ [                                                         ",
"                              u                     [ [ [ [ [ [ [ [ [                                             p 3 . @ . .   ",
".   _             1 9 { { { ~ ( . { # {         v w x y y y y y x x w v i . . 7 2 i % o o o 3 . ; { { . . . { ) ] k           $ ",
". 2 z { { { { { { { ~ *           k z   k 9     v A A w x y w w x A A v                 .             1   k _ %                 ",
"$                                           .     v v v v v v v v v v v                                       s                 ",
"                                            .     v B C D E E D F C B v                                                         ",
"                                            -     v G H I C J C I G B v                                                         ",
"                                            = 2   v v v J I C J H v v v                                       . e               ",
"                                            ~ d . . v B K B L M K B v                                         N # < < < < . * . ",
"                                            {         v v v v v v v                                         .                   ",
"                                                      v O P Q P R v                                       .                     ",
"                                                      v S P T U V v                                     .                       ",
"                                            =           v v v v v                                       . $ $ $ . $ .           ",
". . . . ! ) . $ . N +                       N           v W W X v N . . . - . $ $ $ . _                 $                       ",
".                 1 N                       ~           v Y Z ` v             .     _ !                                         ",
"$                   .                     k N           v  ...+.v                     .                       .                 ",
".                   . ( 8 _ _ _ _ _ _ f @.#.s           v $.%.&.v                     k '   . { N f f *.                        ",
".                   .                     o =.          v -.;.>.v                     $                                         ",
"$                   .                       p _ N       v ,.'.).v                     $                                         ",
".                   .                       #     .     v !.~.{.v                     .                                         ",
"$                   .                       d       . 8 v !.~.].v                     .                                         ",
"                    ! <                     8         v ^./.(._.:.v                   + 2                                       ",
"                      $                     i         v <.[.}.|.1.v                     .                                       ",
"                      .                     i         v v 2.2.3.v v                     .                                       ",
"                      ~                     i           v v 2.v v                       )                                       ",
". #   . # # # . . = N # # # ~               i             v v v N N # # # # # 2 .   * i # # z .                                 ",
".                             p ) . { .     o ) ) ) # . . . . . +                               p ) ) .   . . . - ) . .   . . $ ",
".                             .         . i 2         .         %                               3           + . .       2 .     ",
".                             .                                 .                               )                               ",
".                             .     $ .                                                         !       d                       ",
".                             N   z                             .                               =   *.                          ",
"@                             s 1                               o ~                             q 7 .                           ",
"                              .                                 .                               z                               ",
"                              .                                 @                                                               ",
"                              {                                 @                               k                               "};
