/* XPM */
static char * wall_texture_brown_64_xpm[] = {
"64 64 52 1",
" 	c #27150A",
".	c #533F32",
"+	c #594539",
"@	c #584437",
"#	c #523E31",
"$	c #5A473B",
"%	c #584438",
"&	c #4E3A2E",
"*	c #554235",
"=	c #554135",
"-	c #544034",
";	c #5D4A3D",
">	c #5D493D",
",	c #564336",
"'	c #5C483C",
")	c #544033",
"!	c #574336",
"~	c #554134",
"{	c #523E32",
"]	c #5E4A3E",
"^	c #3F2D21",
"/	c #5A463A",
"(	c #5F4C3F",
"_	c #564235",
":	c #5B483C",
"<	c #4A362A",
"[	c #5B483B",
"}	c #5B473B",
"|	c #453226",
"1	c #4F3B2E",
"2	c #594639",
"3	c #523D31",
"4	c #544134",
"5	c #4F3A2E",
"6	c #513D31",
"7	c #4A372A",
"8	c #453126",
"9	c #564236",
"0	c #574337",
"a	c #322015",
"b	c #5B473A",
"c	c #5A4639",
"d	c #5A473A",
"e	c #5C493C",
"f	c #584538",
"g	c #574437",
"h	c #3F2C21",
"i	c #533F33",
"j	c #5F4B3F",
"k	c #614E41",
"l	c #533E32",
"m	c #604D40",
"             .        +         @          .          #+        ",
"            $         .         @                     ..        ",
"           $          .         @                      .        ",
"          $                     %                      &        ",
".         $           .@**=-=;>,'          $           )!~){.*].",
"$         .                     @          $                    ",
".         .                     @          .                    ",
".         $                     @          $                    ",
".         $           ^         /          .                    ",
"$         .           $         (          .                    ",
">;_....)$;:           .        ]-.<.....[};;                    ",
"                      <        |           .           1        ",
"           2#._+@#... #        .           .@)&.33)..4-5...     ",
"           .          .        1           .                    ",
"           .          .        .           .                    ",
"          $           #        6           .                    ",
"          5                    6           .                    ",
"          %7          )        8           +8                   ",
"                      !        .                                ",
"                      9                                         ",
"                      9        #            <                   ",
"+=--_1...09%8.7       -         ;@!!-,....22;!!&       a        ",
"$              0aaa   b  a      %               9      0        ",
"               %#..~_(c95..4..  d               e7  1.]d,..4...$",
"               a                7               .    .          ",
"               f                                ~  .^           ",
"               .                 .              g .             ",
"               .                 .              1.              ",
"               .                 .<             f               ",
"               .                 .                              ",
"               h                                         d2.@.. ",
". _      |5{{{~(.{#{             {{20..310%eee2.;{{...{)]a     $",
".16{{{{{{{~*     a6 a5          *3          .      | a_%        ",
"$                     .         @                      g        ",
"                      .         @                               ",
"                      -         @                               ",
"                      =1       hd                      .8       ",
"                      ~7..<..#<<c                      i#<<<<.*.",
"                      {         @                     .         ",
"                                @                    .          ",
"                                @                   .           ",
"                      =         }                   .$$$.$.     ",
"....!).$.i+           i         9i...-.$$$._        $           ",
".        |i           ~                .  _!                    ",
"$         .          ai                    .           .        ",
".         .(4______9jkg                    a' .{i99l            ",
".         .          em                    $                    ",
"$         .           d_i                  $                    ",
".         .           #  .                 .                    ",
"$         .           7   .4$              .                    ",
"          !<          4      .             +1                   ",
"           $          0      $6             .                   ",
"           .          0        .            .                   ",
"           ~          0         7           )                   ",
".# .###..=i###~       0         ii#####1. *0##6.                ",
".              d).{.  e)))#.....+               d)). ...-).. ..$",
".              .    .01    .    %               2     +..   1.  ",
".              .                .               )               ",
".              .  $.                            !   7           ",
".              i 6              .               = l             ",
"@              g|               e~              f3.             ",
"               .                .               6               ",
"               .                @                               ",
"               {                @               a               "};
