/* XPM */
static char * bookshelf_xpm[] = {
"64 64 50 1",
" 	c #8F563B",
".	c #4B220F",
"+	c #6A3923",
"@	c #EC828C",
"#	c #AC3232",
"$	c #FFFA8D",
"%	c #D3CB23",
"&	c #D95763",
"*	c #FFDFC1",
"=	c #D39A63",
"-	c #FBF236",
";	c #CB83E6",
">	c #822EA2",
",	c #5BC197",
"'	c #1B704D",
")	c #EEC39A",
"!	c #FF8244",
"~	c #B9451D",
"{	c #9E54BB",
"]	c #C1D7FF",
"^	c #639BFF",
"/	c #37946E",
"(	c #F1641F",
"_	c #EC9357",
":	c #A24F17",
"<	c #5FCDE4",
"[	c #6E6EB4",
"}	c #272757",
"|	c #DF7126",
"1	c #4D645D",
"2	c #323C39",
"3	c #FFFFFF",
"4	c #BBBBBB",
"5	c #C9D36C",
"6	c #8F974A",
"7	c #3F3F74",
"8	c #344B44",
"9	c #DADADA",
"0	c #A0A856",
"a	c #C090A9",
"b	c #654956",
"c	c #EFDD91",
"d	c #A2943A",
"e	c #966888",
"f	c #C6B858",
"g	c #696A6A",
"h	c #898989",
"i	c #C1AD7E",
"j	c #836F43",
"k	c #A28A53",
"                                                               .",
"                                                               .",
"                                                               .",
"                                                               .",
"  ........................................................     .",
"  +++++++++++++++++++++++++++++++++++++++++++++++++++++++.     .",
"  +++++++++++++++++++++++++++++++++++++++++++++++++++++++.     .",
"  +++++++++++@#++++++++++++++++++++++++++$$$%++++++++++++.     .",
"  +++++++++++&#++++++++++++**=+++++++++++---%++;;;;>+++++.     .",
"  +++++++++++&#,,,'++++++++))=++++++!!!!~---%++{{{{>+++++.     .",
"  +++++++]]]^&#///'++++++++))=++++++((((~---%_:{{{{>+++++.     .",
"  +++++++<<<^&#///'++++++++))=[[[[[}((((~---%|:{{{{>1112+.     .",
"  +333334<<<^&#///'55555566))=77777}((((~---%|:{{{{>8882+.     .",
"  +999994<<<^&#///'00000066))=77777}((((~---%|:{{{{>8882+.     .",
"  +999994<<<^&#///'00000066))=77777}((((~---%|:{{{{>8882+.     .",
"  +999994<<<^&#///'00000066))=77777}((((~---%|:{{{{>8882+.     .",
"  +999994<<<^&#///'00000066))=77777}((((~---%|:{{{{>8882+.     .",
"  +999994<<<^&#///'00000066))=77777}((((~---%|:{{{{>8882+.     .",
"  +999994<<<^&#///'00000066))=77777}((((~---%|:{{{{>8882+.     .",
"  +999994<<<^&#///'00000066))=77777}((((~---%|:{{{{>8882+.     .",
"  ........................................................     .",
"                                                               .",
"                                                               .",
"  ........................................................     .",
"  +++++++++++++++++++++++++++++++++++++++++++++++++++++++.     .",
"  +++++++++++$%++++++++++++++++++++*=+++++++++++++!!!~+++.     .",
"  ++++@@#++++-%+++++++++]]^++++++++)=+++++++++++++(((~+++.     .",
"  +,,'&&#++++-%+++++++++<<^++++++++)=++++++++++aab(((~cd+.     .",
"  +//'&&#[[[}-%+++++++++<<^++++3334)=++556+++++eeb(((~fd+.     .",
"  +//'&&#777}-%4444g++++<<^++++9994)=++006+++++eeb(((~fd+.     .",
"  +//'&&#777}-%hhhhg++++<<^___:9994)=++00611112eeb(((~fd+.     .",
"  +//'&&#777}-%hhhhg;;;><<^|||:9994)=ij00688882eeb(((~fd+.     .",
"  +//'&&#777}-%hhhhg{{{><<^|||:9994)=kj00688882eeb(((~fd+.     .",
"  +//'&&#777}-%hhhhg{{{><<^|||:9994)=kj00688882eeb(((~fd+.     .",
"  +//'&&#777}-%hhhhg{{{><<^|||:9994)=kj00688882eeb(((~fd+.     .",
"  +//'&&#777}-%hhhhg{{{><<^|||:9994)=kj00688882eeb(((~fd+.     .",
"  +//'&&#777}-%hhhhg{{{><<^|||:9994)=kj00688882eeb(((~fd+.     .",
"  +//'&&#777}-%hhhhg{{{><<^|||:9994)=kj00688882eeb(((~fd+.     .",
"  +//'&&#777}-%hhhhg{{{><<^|||:9994)=kj00688882eeb(((~fd+.     .",
"  ........................................................     .",
"                                                               .",
"                                                               .",
"  ........................................................     .",
"  +++++++++++++++++++++++++++++++++++++++++++++++++++++++.     .",
"  +++++++++++$$$$$$%++++++++++**=+++++;;;;;;;;;>+++++++++.     .",
"  +++++++++++------%++++++++++))=+++++{{{{{{{{{>+++++++++.     .",
"  +++++++++++------%,,,'++++++))=++112{{{{{{{{{>+++++++++.     .",
"  +++++++++++------%///']]]]]^))=34882{{{{{{{{{>++++@@@#+.     .",
"  +++++++!!!~------%///'<<<<<^))=94882{{{{{{{{{>++++&&&#+.     .",
"  +[[[[[}(((~------%///'<<<<<^))=94882{{{{{{{{{>++++&&&#+.     .",
"  +77777}(((~------%///'<<<<<^))=94882{{{{{{{{{>++++&&&#+.     .",
"  +77777}(((~------%///'<<<<<^))=94882{{{{{{{{{>cccd&&&#+.     .",
"  +77777}(((~------%///'<<<<<^))=94882{{{{{{{{{>fffd&&&#+.     .",
"  +77777}(((~------%///'<<<<<^))=94882{{{{{{{{{>fffd&&&#+.     .",
"  +77777}(((~------%///'<<<<<^))=94882{{{{{{{{{>fffd&&&#+.     .",
"  +77777}(((~------%///'<<<<<^))=94882{{{{{{{{{>fffd&&&#+.     .",
"  +77777}(((~------%///'<<<<<^))=94882{{{{{{{{{>fffd&&&#+.     .",
"  +77777}(((~------%///'<<<<<^))=94882{{{{{{{{{>fffd&&&#+.     .",
"  ........................................................     .",
"                                                               .",
"                                                               .",
"                                                               .",
"                                                               .",
"................................................................"};
