/* XPM */
static char * wall_texture_64_torch_5_xpm[] = {
"64 64 68 1",
" 	c #565656",
".	c #333333",
"+	c #ABABAB",
"@	c #ED4C11",
"#	c #130215",
"$	c #CC342E",
"%	c #000000",
"&	c #FF8601",
"*	c #FFCE38",
"=	c #FEF9ED",
"-	c #130217",
";	c #C1987A",
">	c #F4E3A2",
",	c #F8F8DA",
"'	c #4D4358",
")	c #5B1932",
"!	c #1E0417",
"~	c #C05539",
"{	c #6A2533",
"]	c #66142F",
"^	c #7B2C37",
"/	c #CD5827",
"(	c #F9A93A",
"_	c #B85733",
":	c #170416",
"<	c #F2B85D",
"[	c #DF9834",
"}	c #ECE3AD",
"|	c #D09E6F",
"1	c #5A4F5A",
"2	c #574B64",
"3	c #544F61",
"4	c #D39D78",
"5	c #584F62",
"6	c #433950",
"7	c #632034",
"8	c #3E081F",
"9	c #FAB831",
"0	c #B6552C",
"a	c #892E31",
"b	c #B1542B",
"c	c #621D33",
"d	c #3F0B20",
"e	c #D17724",
"f	c #B8542B",
"g	c #140115",
"h	c #F6B448",
"i	c #B34F2C",
"j	c #5F1A2D",
"k	c #6D2538",
"l	c #340922",
"m	c #5A172C",
"n	c #631D2A",
"o	c #C05C2D",
"p	c #3C061A",
"q	c #52192F",
"r	c #E4EBE9",
"s	c #FBFADD",
"t	c #EFD095",
"u	c #555168",
"v	c #4C475B",
"w	c #5A5765",
"x	c #F0D49D",
"y	c #CB9D78",
"z	c #C69475",
"A	c #4B4152",
"B	c #5F1F34",
"C	c #4F1932",
"         .......         .......        .......         ........",
" ++              ++            .++             +++             .",
" +               +             .+              +               .",
"                               .+              +               .",
"               .               .@             .+               .",
"               .         @  @  .              .                .",
".              ..        #   #..              ..              ..",
".             ...           #$..             ...             ...",
"............................#$$#..............%................%",
"        .+++++++        +++#$@$#        +++++++         ++++++++",
"        .+              ++ #$@&#    &   ++              +       ",
"        .+             @&  #$&&$#    #  +                       ",
"        .+             ## #$@&&$##    &&+                       ",
"        .+            &.+ #$@&*@$$## @#&+             .         ",
"        .             #. #$@&=*&&@$# # .              ..        ",
"       ..             .. #$@=*=*&&@$# ..             ...        ",
"........%................#$&*==**&@$#...........................",
" ++++++++        +++++++ #$&*===*&@$#+++      . +++++++        .",
" +               +      #$@&====**&$#          ++              .",
"                        #$@&*====*&@$#         +               .",
"                         #$@*=====&@$##       .+               .",
"               .        #$$@&*===*&&$#        .+               .",
"               .        #$@&&*=*=&@$##        .                .",
".              ..        #$@&***&&@$#        ...              ..",
".        ........        .#$@&*&@$##    ........       .........",
" ........         ....... #########.....        .......         ",
"        .++             -;>,,,,,>>;-    ++              ++      ",
"        .+              -'';>,;;>''-    +               +       ",
"        .+              .-----------   .+                       ",
"        .+              .-)!~{{~]!)-   .+             .         ",
"        .+              .-^/(!_!(^)-   .              .         ",
"       ..              ..---_(!_/---   .              ..        ",
"      ...             ... -):)<[:)-   ..             ...        ",
"........................%..-------..............................",
" ++++++++        +++++++   -}|1|2-+++++        .+++++++        .",
" +               +         -3|456-             .+              .",
"                            -----              .+              .",
"                            -778-              .+              .",
"               .            -90a-              .+              .",
".              ..           -bcd-              .               .",
".             ...           -efg-             ..              ..",
"............................-hij-..............%...............%",
"        .++++++++       .+++-klm-      . +++++++        ++++++++",
"        .++             .++ -nop-       ++              +       ",
"        .+              .+  -noq-       +               +       ",
"        .+              .+ -rstuv-     .+                       ",
"        .+              .+ -wxyzA-     .+             .         ",
"        .+              .+ --BBC--     .+             .         ",
"       ..              ..   --B--     ..              ..        ",
".........       .........    ---.........       ........        ",
"         .......         .......         .......        ........",
" ++              ++              ++              ++            .",
" +               +               +               +             .",
"                                                               .",
"               .               .               .               .",
"               .               .               .               .",
".             ...             ...             ...             ..",
"...............................................................%",
"        .+++++++        .+++++++       . +++++++        ++++++++",
"        .++             .++             ++              +       ",
"        .+              .+             .+               +       ",
"        .+              .+             .+             .         ",
"       ..+             ..+            ..              .         ",
".........       .........        .......        ........        "};
